<svg xmlns="http://www.w3.org/2000/svg" width="13.581" height="13.581" viewBox="0 0 13.581 13.581">
  <path id="Path_47" data-name="Path 47" d="M29.062-52.352l-5.336,5.336a.771.771,0,0,1-.584.24.848.848,0,0,1-.594-.267.826.826,0,0,1-.259-.6.826.826,0,0,1,.259-.6l5.309-5.309-5.336-5.336a.786.786,0,0,1-.24-.6.862.862,0,0,1,.267-.608.826.826,0,0,1,.6-.259.826.826,0,0,1,.6.259l5.309,5.336L34.4-60.1a.833.833,0,0,1,.6-.254.814.814,0,0,1,.608.254.826.826,0,0,1,.259.6.826.826,0,0,1-.259.6l-5.336,5.336L35.6-48.221a.818.818,0,0,1,.254.584.8.8,0,0,1-.254.594.826.826,0,0,1-.6.259.826.826,0,0,1-.6-.259Z" transform="translate(-22.281 60.357)" fill="#4a4a4a"/>
</svg>
